<?xml version="1.0" encoding="UTF-8" standalone="no"?>
<!DOCTYPE svg PUBLIC "-//W3C//DTD SVG 1.1//EN" "http://www.w3.org/Graphics/SVG/1.1/DTD/svg11.dtd">
<svg version="1.1" xmlns="http://www.w3.org/2000/svg" xmlns:xlink="http://www.w3.org/1999/xlink" preserveAspectRatio="xMidYMid meet" viewBox="0 0 300 640" width="300" height="640"><defs><path d="M-123.12 410C-123.12 410 -123.12 410 -123.12 410C-123.12 465.63 -123.12 496.54 -123.12 502.72C-123.12 502.72 -123.12 502.72 -123.12 502.72C-183.21 502.72 -216.59 502.72 -223.27 502.72C-223.27 502.72 -223.27 502.72 -223.27 502.72C-223.27 447.09 -223.27 416.18 -223.27 410C-223.27 410 -223.27 410 -223.27 410C-163.18 410 -129.8 410 -123.12 410Z" id="g1WfEN65wj"></path><linearGradient id="gradientc2on75YFUI" gradientUnits="userSpaceOnUse" x1="-217.39" y1="470.08" x2="-124.66" y2="470.08"><stop style="stop-color: #808080;stop-opacity: 1" offset="0%"></stop><stop style="stop-color: #5b5b5b;stop-opacity: 1" offset="100%"></stop></linearGradient><path d="M-123.12 410C-123.12 410 -123.12 410 -123.12 410C-123.12 465.63 -123.12 496.54 -123.12 502.72C-123.12 502.72 -123.12 502.72 -123.12 502.72C-183.21 502.72 -216.59 502.72 -223.27 502.72C-223.27 502.72 -223.27 502.72 -223.27 502.72C-223.27 447.09 -223.27 416.18 -223.27 410C-223.27 410 -223.27 410 -223.27 410C-163.18 410 -129.8 410 -123.12 410Z" id="aLqtff6Id"></path><linearGradient id="gradienta3dvconRS2" gradientUnits="userSpaceOnUse" x1="-169.94" y1="406.94" x2="-169.94" y2="449.52"><stop style="stop-color: #000000;stop-opacity: 1" offset="0%"></stop><stop style="stop-color: #000000;stop-opacity: 0" offset="100%"></stop></linearGradient><path d="M-229.26 442.39L-176.59 435.16L-229.26 435.16L-229.26 442.39ZM-229.26 451.29L-229.26 457.41L-117.25 442.02L-117.25 435.9L-229.26 451.29ZM-229.26 466.31L-229.26 472.43L-117.25 457.04L-117.25 450.92L-229.26 466.31ZM-229.26 481.34L-229.26 487.36L-117.25 471.97L-117.25 465.94L-229.26 481.34ZM-229.26 496.26L-229.26 502.38L-117.25 486.99L-117.25 480.87L-229.26 496.26Z" id="a3EFNpLjjg"></path><linearGradient id="gradienta1aEaglvW" gradientUnits="userSpaceOnUse" x1="-118.72" y1="468.6" x2="-230.76" y2="468.6"><stop style="stop-color: #585858;stop-opacity: 1" offset="0%"></stop><stop style="stop-color: #434343;stop-opacity: 1" offset="100%"></stop></linearGradient><path d="M-230.33 412.55C-230.33 421.89 -230.33 427.09 -230.33 428.13C-230.33 432.24 -227.02 435.54 -222.91 435.54C-212.97 435.54 -133.45 435.54 -123.51 435.54C-119.4 435.54 -116.09 432.24 -116.09 428.13C-116.09 427.09 -116.09 421.89 -116.09 412.55L-230.33 412.55Z" id="f2FGPNk1fc"></path><linearGradient id="gradientb19fxgPAbp" gradientUnits="userSpaceOnUse" x1="-217.39" y1="470.08" x2="-124.66" y2="470.08"><stop style="stop-color: #808080;stop-opacity: 1" offset="0%"></stop><stop style="stop-color: #5b5b5b;stop-opacity: 1" offset="100%"></stop></linearGradient><path d="M-230.33 412.55C-230.33 421.89 -230.33 427.09 -230.33 428.13C-230.33 432.24 -227.02 435.54 -222.91 435.54C-212.97 435.54 -133.45 435.54 -123.51 435.54C-119.4 435.54 -116.09 432.24 -116.09 428.13C-116.09 427.09 -116.09 421.89 -116.09 412.55L-230.33 412.55Z" id="a71fl6YLTo"></path><linearGradient id="gradientdD5dyWIUj" gradientUnits="userSpaceOnUse" x1="-177.9" y1="418.36" x2="-177.9" y2="429.34"><stop style="stop-color: #000000;stop-opacity: 1" offset="0%"></stop><stop style="stop-color: #000000;stop-opacity: 0" offset="100%"></stop></linearGradient><path d="M-304.79 226.25C-304.79 259.38 -292.55 289.62 -272.33 312.76C-260.82 324.78 -252.75 342.2 -250.17 362.18C-250.16 365.87 -250.12 395.37 -250.11 399.06C-250.11 412.27 -239.5 422.88 -226.29 422.88C-215.67 422.88 -130.74 422.88 -120.12 422.88C-106.91 422.88 -96.3 412.27 -96.3 399.06C-96.31 395.37 -96.33 365.87 -96.34 362.18C-93.77 342.24 -85.62 324.87 -74.18 312.85C-74.17 312.82 -74.18 312.79 -74.18 312.76C-53.95 289.62 -41.63 259.39 -41.63 226.25C-41.63 153.57 -100.53 94.67 -173.21 94.67C-245.88 94.67 -304.79 153.57 -304.79 226.25Z" id="a67gOhCPjK"></path><linearGradient id="gradiente6glbvojo" gradientUnits="userSpaceOnUse" x1="-289.35" y1="194.87" x2="-74.96" y2="272.02"><stop style="stop-color: #959595;stop-opacity: 0.30622" offset="0%"></stop><stop style="stop-color: #3d3d3d;stop-opacity: 0.53589" offset="100%"></stop></linearGradient><path d="M-223.32 502.66L-210.71 516.76L-135.79 516.76L-123.18 502.66L-223.32 502.66Z" id="c1VH3QzMpA"></path><path d="M-210.74 516.76C-210.74 519.84 -209.2 522.91 -206.1 525.27C-203.93 526.92 -186.59 540.14 -184.42 541.79C-178.24 546.51 -168.27 546.51 -162.08 541.79C-159.91 540.14 -142.57 526.92 -140.4 525.27C-137.31 522.91 -135.76 519.83 -135.76 516.76C-150.76 516.76 -195.75 516.76 -210.74 516.76Z" id="eJit3uBYk"></path><path d="M-304.79 226.25C-304.79 259.38 -292.55 289.62 -272.33 312.76C-260.82 324.78 -252.75 342.2 -250.17 362.18C-250.16 365.87 -250.12 395.37 -250.11 399.06C-250.11 412.27 -239.5 422.88 -226.29 422.88C-215.67 422.88 -130.74 422.88 -120.12 422.88C-106.91 422.88 -96.3 412.27 -96.3 399.06C-96.31 395.37 -96.33 365.87 -96.34 362.18C-93.77 342.24 -85.62 324.87 -74.18 312.85C-74.17 312.82 -74.18 312.79 -74.18 312.76C-53.95 289.62 -41.63 259.39 -41.63 226.25C-41.63 153.57 -100.53 94.67 -173.21 94.67C-245.88 94.67 -304.79 153.57 -304.79 226.25Z" id="g4njtomKt5"></path><linearGradient id="gradienta3QJxn4w4I" gradientUnits="userSpaceOnUse" x1="-153.59" y1="403.85" x2="-153.59" y2="307.57"><stop style="stop-color: #b9b9b9;stop-opacity: 1" offset="0%"></stop><stop style="stop-color: #cecece;stop-opacity: 0" offset="100%"></stop></linearGradient><path d="M-279.96 234.4C-279.96 236.2 -279.58 238.35 -279.41 240.24C-275.86 239.64 -247.53 234.82 -243.98 234.22C-239.96 201.2 -220.5 173.11 -192.8 157.35C-194.07 155.2 -200.44 144.48 -211.9 125.17C-257.28 165.96 -279.96 202.37 -279.96 234.4Z" id="bdxA85REg"></path><path d="M21.6 226.25C21.6 259.38 33.84 289.62 54.06 312.76C65.57 324.78 73.64 342.2 76.22 362.18C76.23 365.87 76.27 395.37 76.28 399.06C76.28 412.27 86.89 422.88 100.1 422.88C110.72 422.88 195.65 422.88 206.27 422.88C219.48 422.88 230.09 412.27 230.09 399.06C230.09 395.37 230.06 365.87 230.05 362.18C232.62 342.24 240.77 324.87 252.21 312.85C252.22 312.82 252.21 312.79 252.21 312.76C272.44 289.62 284.76 259.39 284.76 226.25C284.76 153.57 225.86 94.67 153.18 94.67C80.51 94.67 21.6 153.57 21.6 226.25Z" id="azxCDYqjW"></path><path d="M203.27 410C203.27 410 203.27 410 203.27 410C203.27 465.63 203.27 496.54 203.27 502.72C203.27 502.72 203.27 502.72 203.27 502.72C143.18 502.72 109.8 502.72 103.13 502.72C103.13 502.72 103.13 502.72 103.13 502.72C103.13 447.09 103.13 416.18 103.13 410C103.13 410 103.13 410 103.13 410C163.21 410 196.59 410 203.27 410Z" id="b2VecicVNX"></path><linearGradient id="gradientainsHdE9z" gradientUnits="userSpaceOnUse" x1="109" y1="470.08" x2="201.73" y2="470.08"><stop style="stop-color: #808080;stop-opacity: 1" offset="0%"></stop><stop style="stop-color: #5b5b5b;stop-opacity: 1" offset="100%"></stop></linearGradient><path d="M203.27 410C203.27 410 203.27 410 203.27 410C203.27 465.63 203.27 496.54 203.27 502.72C203.27 502.72 203.27 502.72 203.27 502.72C143.18 502.72 109.8 502.72 103.13 502.72C103.13 502.72 103.13 502.72 103.13 502.72C103.13 447.09 103.13 416.18 103.13 410C103.13 410 103.13 410 103.13 410C163.21 410 196.59 410 203.27 410Z" id="a3hbieEDk"></path><linearGradient id="gradienth20tMxzJj0" gradientUnits="userSpaceOnUse" x1="156.45" y1="406.94" x2="156.45" y2="449.52"><stop style="stop-color: #000000;stop-opacity: 1" offset="0%"></stop><stop style="stop-color: #000000;stop-opacity: 0" offset="100%"></stop></linearGradient><path d="M97.13 442.39L149.8 435.16L97.13 435.16L97.13 442.39ZM97.13 451.29L97.13 457.41L209.14 442.02L209.14 435.9L97.13 451.29ZM97.13 466.31L97.13 472.43L209.14 457.04L209.14 450.92L97.13 466.31ZM97.13 481.34L97.13 487.36L209.14 471.97L209.14 465.94L97.13 481.34ZM97.13 496.26L97.13 502.38L209.14 486.99L209.14 480.87L97.13 496.26Z" id="a2yD3nFH7K"></path><linearGradient id="gradienta1xpW59dYl" gradientUnits="userSpaceOnUse" x1="207.67" y1="468.6" x2="95.63" y2="468.6"><stop style="stop-color: #585858;stop-opacity: 1" offset="0%"></stop><stop style="stop-color: #434343;stop-opacity: 1" offset="100%"></stop></linearGradient><path d="M96.06 412.55C96.06 421.89 96.06 427.09 96.06 428.13C96.06 432.24 99.37 435.54 103.48 435.54C113.42 435.54 192.94 435.54 202.88 435.54C206.99 435.54 210.3 432.24 210.3 428.13C210.3 427.09 210.3 421.89 210.3 412.55L96.06 412.55Z" id="awWydSMQ1"></path><linearGradient id="gradientd18GfUO0j" gradientUnits="userSpaceOnUse" x1="109" y1="470.08" x2="201.73" y2="470.08"><stop style="stop-color: #808080;stop-opacity: 1" offset="0%"></stop><stop style="stop-color: #5b5b5b;stop-opacity: 1" offset="100%"></stop></linearGradient><path d="M96.06 412.55C96.06 421.89 96.06 427.09 96.06 428.13C96.06 432.24 99.37 435.54 103.48 435.54C113.42 435.54 192.94 435.54 202.88 435.54C206.99 435.54 210.3 432.24 210.3 428.13C210.3 427.09 210.3 421.89 210.3 412.55L96.06 412.55Z" id="a1N7ddrj5"></path><linearGradient id="gradientfWDQSs1Lu" gradientUnits="userSpaceOnUse" x1="148.49" y1="418.36" x2="148.49" y2="429.34"><stop style="stop-color: #000000;stop-opacity: 1" offset="0%"></stop><stop style="stop-color: #000000;stop-opacity: 0" offset="100%"></stop></linearGradient><path d="M21.6 226.25C21.6 259.38 33.84 289.62 54.06 312.76C65.57 324.78 73.64 342.2 76.22 362.18C76.23 365.87 76.27 395.37 76.28 399.06C76.28 412.27 86.89 422.88 100.1 422.88C110.72 422.88 195.65 422.88 206.27 422.88C219.48 422.88 230.09 412.27 230.09 399.06C230.09 395.37 230.06 365.87 230.05 362.18C232.62 342.24 240.77 324.87 252.21 312.85C252.22 312.82 252.21 312.79 252.21 312.76C272.44 289.62 284.76 259.39 284.76 226.25C284.76 153.57 225.86 94.67 153.18 94.67C80.51 94.67 21.6 153.57 21.6 226.25Z" id="b2daaZaOuH"></path><linearGradient id="gradienta211CL8EpG" gradientUnits="userSpaceOnUse" x1="37.05" y1="194.87" x2="251.43" y2="272.02"><stop style="stop-color: #fefef9;stop-opacity: 0.31390134" offset="0%"></stop><stop style="stop-color: #3d3d3d;stop-opacity: 0.53589" offset="100%"></stop></linearGradient><path d="M103.07 502.66L115.68 516.76L190.6 516.76L203.21 502.66L103.07 502.66Z" id="h1i0PlYx7"></path><path d="M115.65 516.76C115.65 519.84 117.19 522.91 120.29 525.27C122.46 526.92 139.8 540.14 141.97 541.79C148.16 546.51 158.12 546.51 164.31 541.79C166.48 540.14 183.82 526.92 185.99 525.27C189.08 522.91 190.63 519.83 190.63 516.76C175.63 516.76 130.64 516.76 115.65 516.76Z" id="f2lZd8AVD"></path><path d="M21.6 226.25C21.6 259.38 33.84 289.62 54.06 312.76C65.57 324.78 73.64 342.2 76.22 362.18C76.23 365.87 76.27 395.37 76.28 399.06C76.28 412.27 86.89 422.88 100.1 422.88C110.72 422.88 195.65 422.88 206.27 422.88C219.48 422.88 230.09 412.27 230.09 399.06C230.09 395.37 230.06 365.87 230.05 362.18C232.62 342.24 240.77 324.87 252.21 312.85C252.22 312.82 252.21 312.79 252.21 312.76C272.44 289.62 284.76 259.39 284.76 226.25C284.76 153.57 225.86 94.67 153.18 94.67C80.51 94.67 21.6 153.57 21.6 226.25Z" id="bns805vTn"></path><linearGradient id="gradientb3dDVzVyqM" gradientUnits="userSpaceOnUse" x1="172.8" y1="403.85" x2="171.31" y2="300.89"><stop style="stop-color: #e9e337;stop-opacity: 1" offset="0%"></stop><stop style="stop-color: #f9fca2;stop-opacity: 0" offset="100%"></stop></linearGradient><path d="M46.43 234.4C46.43 236.2 46.81 238.35 46.98 240.24C50.53 239.64 78.86 234.82 82.41 234.22C86.43 201.2 105.89 173.11 133.59 157.35C132.32 155.2 125.95 144.48 114.49 125.17C69.12 165.96 46.43 202.37 46.43 234.4Z" id="cG3LjuSir"></path></defs><g><g><g><use xlink:href="#g1WfEN65wj" opacity="1" fill="url(#gradientc2on75YFUI)"></use><g><use xlink:href="#g1WfEN65wj" opacity="1" fill-opacity="0" stroke="#000000" stroke-width="1" stroke-opacity="0"></use></g></g><g><use xlink:href="#aLqtff6Id" opacity="1" fill="url(#gradienta3dvconRS2)"></use><g><use xlink:href="#aLqtff6Id" opacity="1" fill-opacity="0" stroke="#000000" stroke-width="1" stroke-opacity="0"></use></g></g><g><use xlink:href="#a3EFNpLjjg" opacity="1" fill="url(#gradienta1aEaglvW)"></use><g><use xlink:href="#a3EFNpLjjg" opacity="1" fill-opacity="0" stroke="#000000" stroke-width="1" stroke-opacity="0"></use></g></g><g><use xlink:href="#f2FGPNk1fc" opacity="1" fill="url(#gradientb19fxgPAbp)"></use><g><use xlink:href="#f2FGPNk1fc" opacity="1" fill-opacity="0" stroke="#000000" stroke-width="1" stroke-opacity="0"></use></g></g><g><use xlink:href="#a71fl6YLTo" opacity="1" fill="url(#gradientdD5dyWIUj)"></use><g><use xlink:href="#a71fl6YLTo" opacity="1" fill-opacity="0" stroke="#000000" stroke-width="1" stroke-opacity="0"></use></g></g><g><use xlink:href="#a67gOhCPjK" opacity="1" fill="url(#gradiente6glbvojo)"></use><g><use xlink:href="#a67gOhCPjK" opacity="1" fill-opacity="0" stroke="#000000" stroke-width="1" stroke-opacity="0"></use></g></g><g><use xlink:href="#c1VH3QzMpA" opacity="1" fill="#808080" fill-opacity="1"></use><g><use xlink:href="#c1VH3QzMpA" opacity="1" fill-opacity="0" stroke="#000000" stroke-width="1" stroke-opacity="0"></use></g></g><g><use xlink:href="#eJit3uBYk" opacity="1" fill="#343434" fill-opacity="1"></use><g><use xlink:href="#eJit3uBYk" opacity="1" fill-opacity="0" stroke="#000000" stroke-width="1" stroke-opacity="0"></use></g></g><g><use xlink:href="#g4njtomKt5" opacity="1" fill="url(#gradienta3QJxn4w4I)"></use><g><use xlink:href="#g4njtomKt5" opacity="1" fill-opacity="0" stroke="#000000" stroke-width="1" stroke-opacity="0"></use></g></g><g><use xlink:href="#bdxA85REg" opacity="1" fill="#ffffff" fill-opacity="1"></use><g><use xlink:href="#bdxA85REg" opacity="1" fill-opacity="0" stroke="#000000" stroke-width="1" stroke-opacity="0"></use></g></g><g><use xlink:href="#azxCDYqjW" opacity="1" fill="#f9ff00" fill-opacity="1"></use><g><use xlink:href="#azxCDYqjW" opacity="1" fill-opacity="0" stroke="#000000" stroke-width="1" stroke-opacity="0"></use></g></g><g><use xlink:href="#b2VecicVNX" opacity="1" fill="url(#gradientainsHdE9z)"></use><g><use xlink:href="#b2VecicVNX" opacity="1" fill-opacity="0" stroke="#000000" stroke-width="1" stroke-opacity="0"></use></g></g><g><use xlink:href="#a3hbieEDk" opacity="1" fill="url(#gradienth20tMxzJj0)"></use><g><use xlink:href="#a3hbieEDk" opacity="1" fill-opacity="0" stroke="#000000" stroke-width="1" stroke-opacity="0"></use></g></g><g><use xlink:href="#a2yD3nFH7K" opacity="1" fill="url(#gradienta1xpW59dYl)"></use><g><use xlink:href="#a2yD3nFH7K" opacity="1" fill-opacity="0" stroke="#000000" stroke-width="1" stroke-opacity="0"></use></g></g><g><use xlink:href="#awWydSMQ1" opacity="1" fill="url(#gradientd18GfUO0j)"></use><g><use xlink:href="#awWydSMQ1" opacity="1" fill-opacity="0" stroke="#000000" stroke-width="1" stroke-opacity="0"></use></g></g><g><use xlink:href="#a1N7ddrj5" opacity="1" fill="url(#gradientfWDQSs1Lu)"></use><g><use xlink:href="#a1N7ddrj5" opacity="1" fill-opacity="0" stroke="#000000" stroke-width="1" stroke-opacity="0"></use></g></g><g><use xlink:href="#b2daaZaOuH" opacity="1" fill="url(#gradienta211CL8EpG)"></use><g><use xlink:href="#b2daaZaOuH" opacity="1" fill-opacity="0" stroke="#000000" stroke-width="1" stroke-opacity="0"></use></g></g><g><use xlink:href="#h1i0PlYx7" opacity="1" fill="#808080" fill-opacity="1"></use><g><use xlink:href="#h1i0PlYx7" opacity="1" fill-opacity="0" stroke="#000000" stroke-width="1" stroke-opacity="0"></use></g></g><g><use xlink:href="#f2lZd8AVD" opacity="1" fill="#343434" fill-opacity="1"></use><g><use xlink:href="#f2lZd8AVD" opacity="1" fill-opacity="0" stroke="#000000" stroke-width="1" stroke-opacity="0"></use></g></g><g><use xlink:href="#bns805vTn" opacity="1" fill="url(#gradientb3dDVzVyqM)"></use><g><use xlink:href="#bns805vTn" opacity="1" fill-opacity="0" stroke="#000000" stroke-width="1" stroke-opacity="0"></use></g></g><g><use xlink:href="#cG3LjuSir" opacity="1" fill="#ffffff" fill-opacity="1"></use><g><use xlink:href="#cG3LjuSir" opacity="1" fill-opacity="0" stroke="#000000" stroke-width="1" stroke-opacity="0"></use></g></g></g></g></svg>