<?xml version="1.0" encoding="UTF-8" standalone="no"?>
<!DOCTYPE svg PUBLIC "-//W3C//DTD SVG 1.1//EN" "http://www.w3.org/Graphics/SVG/1.1/DTD/svg11.dtd">
<svg version="1.1" xmlns="http://www.w3.org/2000/svg" xmlns:xlink="http://www.w3.org/1999/xlink" preserveAspectRatio="xMidYMid meet" viewBox="0 0 300 640" width="300" height="640"><defs><path d="M201.42 404.54C201.42 404.54 201.42 404.54 201.42 404.54C201.42 460.18 201.42 491.09 201.42 497.27C201.42 497.27 201.42 497.27 201.42 497.27C141.34 497.27 107.96 497.27 101.28 497.27C101.28 497.27 101.28 497.27 101.28 497.27C101.28 441.63 101.28 410.72 101.28 404.54C101.28 404.54 101.28 404.54 101.28 404.54C161.37 404.54 194.75 404.54 201.42 404.54Z" id="cIQXNuEua"></path><linearGradient id="gradientbMEx8uIx" gradientUnits="userSpaceOnUse" x1="107.16" y1="464.63" x2="199.88" y2="464.63"><stop style="stop-color: #808080;stop-opacity: 1" offset="0%"></stop><stop style="stop-color: #5b5b5b;stop-opacity: 1" offset="100%"></stop></linearGradient><path d="M201.42 404.54C201.42 404.54 201.42 404.54 201.42 404.54C201.42 460.18 201.42 491.09 201.42 497.27C201.42 497.27 201.42 497.27 201.42 497.27C141.34 497.27 107.96 497.27 101.28 497.27C101.28 497.27 101.28 497.27 101.28 497.27C101.28 441.63 101.28 410.72 101.28 404.54C101.28 404.54 101.28 404.54 101.28 404.54C161.37 404.54 194.75 404.54 201.42 404.54Z" id="a2bmTqkbDn"></path><linearGradient id="gradiente2H26aZSIe" gradientUnits="userSpaceOnUse" x1="154.6" y1="401.49" x2="154.6" y2="444.06"><stop style="stop-color: #000000;stop-opacity: 1" offset="0%"></stop><stop style="stop-color: #000000;stop-opacity: 0" offset="100%"></stop></linearGradient><path d="M95.29 436.94L147.95 429.7L95.29 429.7L95.29 436.94ZM95.29 445.84L95.29 451.96L207.3 436.57L207.3 430.45L95.29 445.84ZM95.29 460.86L95.29 466.98L207.3 451.59L207.3 445.47L95.29 460.86ZM95.29 475.88L95.29 481.91L207.3 466.52L207.3 460.49L95.29 475.88ZM95.29 490.81L95.29 496.93L207.3 481.54L207.3 475.42L95.29 490.81Z" id="c2xyGuOGFK"></path><linearGradient id="gradientadwkuDL2o" gradientUnits="userSpaceOnUse" x1="205.82" y1="463.14" x2="93.78" y2="463.14"><stop style="stop-color: #585858;stop-opacity: 1" offset="0%"></stop><stop style="stop-color: #434343;stop-opacity: 1" offset="100%"></stop></linearGradient><path d="M94.22 407.09C94.22 416.44 94.22 421.63 94.22 422.67C94.22 426.78 97.53 430.09 101.64 430.09C111.58 430.09 191.1 430.09 201.04 430.09C205.15 430.09 208.46 426.78 208.46 422.67C208.46 421.63 208.46 416.44 208.46 407.09L94.22 407.09Z" id="alSUfl8yq"></path><linearGradient id="gradientb1YY5sBDt5" gradientUnits="userSpaceOnUse" x1="107.16" y1="464.63" x2="199.88" y2="464.63"><stop style="stop-color: #808080;stop-opacity: 1" offset="0%"></stop><stop style="stop-color: #5b5b5b;stop-opacity: 1" offset="100%"></stop></linearGradient><path d="M94.22 407.09C94.22 416.44 94.22 421.63 94.22 422.67C94.22 426.78 97.53 430.09 101.64 430.09C111.58 430.09 191.1 430.09 201.04 430.09C205.15 430.09 208.46 426.78 208.46 422.67C208.46 421.63 208.46 416.44 208.46 407.09L94.22 407.09Z" id="e2Hvt3rU8m"></path><linearGradient id="gradientb2vYXwvfVr" gradientUnits="userSpaceOnUse" x1="146.65" y1="412.91" x2="146.65" y2="423.89"><stop style="stop-color: #000000;stop-opacity: 1" offset="0%"></stop><stop style="stop-color: #000000;stop-opacity: 0" offset="100%"></stop></linearGradient><path d="M19.76 220.79C19.76 253.93 32 284.17 52.21 307.31C63.72 319.33 71.8 336.75 74.38 356.73C74.38 360.42 74.43 389.92 74.43 393.61C74.43 406.82 85.04 417.43 98.25 417.43C108.87 417.43 193.81 417.43 204.42 417.43C217.63 417.43 228.24 406.82 228.24 393.61C228.24 389.92 228.21 360.42 228.21 356.73C230.77 336.79 238.92 319.42 250.37 307.4C250.38 307.37 250.36 307.33 250.37 307.3C270.59 284.17 282.92 253.94 282.92 220.79C282.92 148.12 224.01 89.21 151.34 89.21C78.66 89.21 19.76 148.12 19.76 220.79Z" id="b7A3Kv3dSw"></path><linearGradient id="gradientbDUGgK2WP" gradientUnits="userSpaceOnUse" x1="35.2" y1="189.42" x2="249.58" y2="266.57"><stop style="stop-color: #959595;stop-opacity: 0.30622" offset="0%"></stop><stop style="stop-color: #3d3d3d;stop-opacity: 0.53589" offset="100%"></stop></linearGradient><path d="M101.22 497.21L113.83 511.3L188.75 511.3L201.36 497.21L101.22 497.21Z" id="f4JScPnkjo"></path><path d="M113.8 511.3C113.8 514.38 115.35 517.46 118.44 519.82C120.61 521.47 137.95 534.69 140.12 536.34C146.31 541.06 156.28 541.06 162.46 536.34C164.63 534.69 181.97 521.47 184.14 519.82C187.24 517.46 188.78 514.38 188.78 511.3C173.79 511.3 128.8 511.3 113.8 511.3Z" id="c2XJ7ajpWv"></path><path d="M19.76 220.79C19.76 253.93 32 284.17 52.21 307.31C63.72 319.33 71.8 336.75 74.38 356.73C74.38 360.42 74.43 389.92 74.43 393.61C74.43 406.82 85.04 417.43 98.25 417.43C108.87 417.43 193.81 417.43 204.42 417.43C217.63 417.43 228.24 406.82 228.24 393.61C228.24 389.92 228.21 360.42 228.21 356.73C230.77 336.79 238.92 319.42 250.37 307.4C250.38 307.37 250.36 307.33 250.37 307.3C270.59 284.17 282.92 253.94 282.92 220.79C282.92 148.12 224.01 89.21 151.34 89.21C78.66 89.21 19.76 148.12 19.76 220.79Z" id="b21FrETdBc"></path><linearGradient id="gradienth9ShIR0dN" gradientUnits="userSpaceOnUse" x1="170.95" y1="398.4" x2="170.95" y2="302.11"><stop style="stop-color: #b9b9b9;stop-opacity: 1" offset="0%"></stop><stop style="stop-color: #cecece;stop-opacity: 0" offset="100%"></stop></linearGradient><path d="M44.58 228.95C44.58 230.75 44.96 232.89 45.14 234.79C48.68 234.19 77.02 229.36 80.56 228.76C84.59 195.75 104.05 167.65 131.75 151.89C130.47 149.75 124.11 139.02 112.64 119.72C67.27 160.51 44.58 196.92 44.58 228.95Z" id="b3dQVErtSb"></path><path d="M346.15 220.79C346.15 253.93 358.39 284.17 378.6 307.31C390.11 319.33 398.19 336.75 400.77 356.73C400.77 360.42 400.82 389.92 400.82 393.61C400.82 406.82 411.43 417.43 424.65 417.43C435.26 417.43 520.2 417.43 530.81 417.43C544.02 417.43 554.63 406.82 554.63 393.61C554.63 389.92 554.6 360.42 554.6 356.73C557.16 336.79 565.31 319.42 576.76 307.4C576.77 307.37 576.75 307.33 576.76 307.3C596.98 284.17 609.31 253.94 609.31 220.79C609.31 148.12 550.41 89.21 477.73 89.21C405.05 89.21 346.15 148.12 346.15 220.79Z" id="bh62Gvxnz"></path><path d="M527.81 404.54C527.81 404.54 527.81 404.54 527.81 404.54C527.81 460.18 527.81 491.09 527.81 497.27C527.81 497.27 527.81 497.27 527.81 497.27C467.73 497.27 434.35 497.27 427.67 497.27C427.67 497.27 427.67 497.27 427.67 497.27C427.67 441.63 427.67 410.72 427.67 404.54C427.67 404.54 427.67 404.54 427.67 404.54C487.76 404.54 521.14 404.54 527.81 404.54Z" id="d3qEhh85Q7"></path><linearGradient id="gradientb3KXg76gpa" gradientUnits="userSpaceOnUse" x1="433.55" y1="464.63" x2="526.27" y2="464.63"><stop style="stop-color: #808080;stop-opacity: 1" offset="0%"></stop><stop style="stop-color: #5b5b5b;stop-opacity: 1" offset="100%"></stop></linearGradient><path d="M527.81 404.54C527.81 404.54 527.81 404.54 527.81 404.54C527.81 460.18 527.81 491.09 527.81 497.27C527.81 497.27 527.81 497.27 527.81 497.27C467.73 497.27 434.35 497.27 427.67 497.27C427.67 497.27 427.67 497.27 427.67 497.27C427.67 441.63 427.67 410.72 427.67 404.54C427.67 404.54 427.67 404.54 427.67 404.54C487.76 404.54 521.14 404.54 527.81 404.54Z" id="c7pRKLsMJc"></path><linearGradient id="gradientc3anbpqh4v" gradientUnits="userSpaceOnUse" x1="480.99" y1="401.49" x2="480.99" y2="444.06"><stop style="stop-color: #000000;stop-opacity: 1" offset="0%"></stop><stop style="stop-color: #000000;stop-opacity: 0" offset="100%"></stop></linearGradient><path d="M421.68 436.94L474.35 429.7L421.68 429.7L421.68 436.94ZM421.68 445.84L421.68 451.96L533.69 436.57L533.69 430.45L421.68 445.84ZM421.68 460.86L421.68 466.98L533.69 451.59L533.69 445.47L421.68 460.86ZM421.68 475.88L421.68 481.91L533.69 466.52L533.69 460.49L421.68 475.88ZM421.68 490.81L421.68 496.93L533.69 481.54L533.69 475.42L421.68 490.81Z" id="a1qal8yXGI"></path><linearGradient id="gradientdm0nS9zX6" gradientUnits="userSpaceOnUse" x1="532.21" y1="463.14" x2="420.17" y2="463.14"><stop style="stop-color: #585858;stop-opacity: 1" offset="0%"></stop><stop style="stop-color: #434343;stop-opacity: 1" offset="100%"></stop></linearGradient><path d="M420.61 407.09C420.61 416.44 420.61 421.63 420.61 422.67C420.61 426.78 423.92 430.09 428.03 430.09C437.97 430.09 517.49 430.09 527.43 430.09C531.54 430.09 534.85 426.78 534.85 422.67C534.85 421.63 534.85 416.44 534.85 407.09L420.61 407.09Z" id="diUNGuIU1"></path><linearGradient id="gradienta1PPqTfj1" gradientUnits="userSpaceOnUse" x1="433.55" y1="464.63" x2="526.27" y2="464.63"><stop style="stop-color: #808080;stop-opacity: 1" offset="0%"></stop><stop style="stop-color: #5b5b5b;stop-opacity: 1" offset="100%"></stop></linearGradient><path d="M420.61 407.09C420.61 416.44 420.61 421.63 420.61 422.67C420.61 426.78 423.92 430.09 428.03 430.09C437.97 430.09 517.49 430.09 527.43 430.09C531.54 430.09 534.85 426.78 534.85 422.67C534.85 421.63 534.85 416.44 534.85 407.09L420.61 407.09Z" id="b6Gn0Py5P9"></path><linearGradient id="gradientc2eAnKj8B" gradientUnits="userSpaceOnUse" x1="473.04" y1="412.91" x2="473.04" y2="423.89"><stop style="stop-color: #000000;stop-opacity: 1" offset="0%"></stop><stop style="stop-color: #000000;stop-opacity: 0" offset="100%"></stop></linearGradient><path d="M346.15 220.79C346.15 253.93 358.39 284.17 378.6 307.31C390.11 319.33 398.19 336.75 400.77 356.73C400.77 360.42 400.82 389.92 400.82 393.61C400.82 406.82 411.43 417.43 424.65 417.43C435.26 417.43 520.2 417.43 530.81 417.43C544.02 417.43 554.63 406.82 554.63 393.61C554.63 389.92 554.6 360.42 554.6 356.73C557.16 336.79 565.31 319.42 576.76 307.4C576.77 307.37 576.75 307.33 576.76 307.3C596.98 284.17 609.31 253.94 609.31 220.79C609.31 148.12 550.41 89.21 477.73 89.21C405.05 89.21 346.15 148.12 346.15 220.79Z" id="edAMXApUB"></path><linearGradient id="gradientdbfGf9Ln7" gradientUnits="userSpaceOnUse" x1="361.59" y1="189.42" x2="575.97" y2="266.57"><stop style="stop-color: #fefef9;stop-opacity: 0.31390134" offset="0%"></stop><stop style="stop-color: #3d3d3d;stop-opacity: 0.53589" offset="100%"></stop></linearGradient><path d="M427.61 497.21L440.22 511.3L515.14 511.3L527.76 497.21L427.61 497.21Z" id="f1JUmCRBic"></path><path d="M440.19 511.3C440.19 514.38 441.74 517.46 444.83 519.82C447 521.47 464.34 534.69 466.51 536.34C472.7 541.06 482.67 541.06 488.86 536.34C491.02 534.69 508.36 521.47 510.53 519.82C513.63 517.46 515.17 514.38 515.17 511.3C500.18 511.3 455.19 511.3 440.19 511.3Z" id="cYcg7N2In"></path><path d="M346.15 220.79C346.15 253.93 358.39 284.17 378.6 307.31C390.11 319.33 398.19 336.75 400.77 356.73C400.77 360.42 400.82 389.92 400.82 393.61C400.82 406.82 411.43 417.43 424.65 417.43C435.26 417.43 520.2 417.43 530.81 417.43C544.02 417.43 554.63 406.82 554.63 393.61C554.63 389.92 554.6 360.42 554.6 356.73C557.16 336.79 565.31 319.42 576.76 307.4C576.77 307.37 576.75 307.33 576.76 307.3C596.98 284.17 609.31 253.94 609.31 220.79C609.31 148.12 550.41 89.21 477.73 89.21C405.05 89.21 346.15 148.12 346.15 220.79Z" id="b149JAtc6E"></path><linearGradient id="gradienti8kT4uA2lP" gradientUnits="userSpaceOnUse" x1="497.34" y1="398.4" x2="495.86" y2="295.44"><stop style="stop-color: #e9e337;stop-opacity: 1" offset="0%"></stop><stop style="stop-color: #f9fca2;stop-opacity: 0" offset="100%"></stop></linearGradient><path d="M370.97 228.95C370.97 230.75 371.35 232.89 371.53 234.79C375.07 234.19 403.41 229.36 406.95 228.76C410.98 195.75 430.44 167.65 458.14 151.89C456.86 149.75 450.5 139.02 439.04 119.72C393.66 160.51 370.97 196.92 370.97 228.95Z" id="d69Tb8Wre"></path></defs><g><g><g><use xlink:href="#cIQXNuEua" opacity="1" fill="url(#gradientbMEx8uIx)"></use><g><use xlink:href="#cIQXNuEua" opacity="1" fill-opacity="0" stroke="#000000" stroke-width="1" stroke-opacity="0"></use></g></g><g><use xlink:href="#a2bmTqkbDn" opacity="1" fill="url(#gradiente2H26aZSIe)"></use><g><use xlink:href="#a2bmTqkbDn" opacity="1" fill-opacity="0" stroke="#000000" stroke-width="1" stroke-opacity="0"></use></g></g><g><use xlink:href="#c2xyGuOGFK" opacity="1" fill="url(#gradientadwkuDL2o)"></use><g><use xlink:href="#c2xyGuOGFK" opacity="1" fill-opacity="0" stroke="#000000" stroke-width="1" stroke-opacity="0"></use></g></g><g><use xlink:href="#alSUfl8yq" opacity="1" fill="url(#gradientb1YY5sBDt5)"></use><g><use xlink:href="#alSUfl8yq" opacity="1" fill-opacity="0" stroke="#000000" stroke-width="1" stroke-opacity="0"></use></g></g><g><use xlink:href="#e2Hvt3rU8m" opacity="1" fill="url(#gradientb2vYXwvfVr)"></use><g><use xlink:href="#e2Hvt3rU8m" opacity="1" fill-opacity="0" stroke="#000000" stroke-width="1" stroke-opacity="0"></use></g></g><g><use xlink:href="#b7A3Kv3dSw" opacity="1" fill="url(#gradientbDUGgK2WP)"></use><g><use xlink:href="#b7A3Kv3dSw" opacity="1" fill-opacity="0" stroke="#000000" stroke-width="1" stroke-opacity="0"></use></g></g><g><use xlink:href="#f4JScPnkjo" opacity="1" fill="#808080" fill-opacity="1"></use><g><use xlink:href="#f4JScPnkjo" opacity="1" fill-opacity="0" stroke="#000000" stroke-width="1" stroke-opacity="0"></use></g></g><g><use xlink:href="#c2XJ7ajpWv" opacity="1" fill="#343434" fill-opacity="1"></use><g><use xlink:href="#c2XJ7ajpWv" opacity="1" fill-opacity="0" stroke="#000000" stroke-width="1" stroke-opacity="0"></use></g></g><g><use xlink:href="#b21FrETdBc" opacity="1" fill="url(#gradienth9ShIR0dN)"></use><g><use xlink:href="#b21FrETdBc" opacity="1" fill-opacity="0" stroke="#000000" stroke-width="1" stroke-opacity="0"></use></g></g><g><use xlink:href="#b3dQVErtSb" opacity="1" fill="#ffffff" fill-opacity="1"></use><g><use xlink:href="#b3dQVErtSb" opacity="1" fill-opacity="0" stroke="#000000" stroke-width="1" stroke-opacity="0"></use></g></g><g><use xlink:href="#bh62Gvxnz" opacity="1" fill="#f9ff00" fill-opacity="1"></use><g><use xlink:href="#bh62Gvxnz" opacity="1" fill-opacity="0" stroke="#000000" stroke-width="1" stroke-opacity="0"></use></g></g><g><use xlink:href="#d3qEhh85Q7" opacity="1" fill="url(#gradientb3KXg76gpa)"></use><g><use xlink:href="#d3qEhh85Q7" opacity="1" fill-opacity="0" stroke="#000000" stroke-width="1" stroke-opacity="0"></use></g></g><g><use xlink:href="#c7pRKLsMJc" opacity="1" fill="url(#gradientc3anbpqh4v)"></use><g><use xlink:href="#c7pRKLsMJc" opacity="1" fill-opacity="0" stroke="#000000" stroke-width="1" stroke-opacity="0"></use></g></g><g><use xlink:href="#a1qal8yXGI" opacity="1" fill="url(#gradientdm0nS9zX6)"></use><g><use xlink:href="#a1qal8yXGI" opacity="1" fill-opacity="0" stroke="#000000" stroke-width="1" stroke-opacity="0"></use></g></g><g><use xlink:href="#diUNGuIU1" opacity="1" fill="url(#gradienta1PPqTfj1)"></use><g><use xlink:href="#diUNGuIU1" opacity="1" fill-opacity="0" stroke="#000000" stroke-width="1" stroke-opacity="0"></use></g></g><g><use xlink:href="#b6Gn0Py5P9" opacity="1" fill="url(#gradientc2eAnKj8B)"></use><g><use xlink:href="#b6Gn0Py5P9" opacity="1" fill-opacity="0" stroke="#000000" stroke-width="1" stroke-opacity="0"></use></g></g><g><use xlink:href="#edAMXApUB" opacity="1" fill="url(#gradientdbfGf9Ln7)"></use><g><use xlink:href="#edAMXApUB" opacity="1" fill-opacity="0" stroke="#000000" stroke-width="1" stroke-opacity="0"></use></g></g><g><use xlink:href="#f1JUmCRBic" opacity="1" fill="#808080" fill-opacity="1"></use><g><use xlink:href="#f1JUmCRBic" opacity="1" fill-opacity="0" stroke="#000000" stroke-width="1" stroke-opacity="0"></use></g></g><g><use xlink:href="#cYcg7N2In" opacity="1" fill="#343434" fill-opacity="1"></use><g><use xlink:href="#cYcg7N2In" opacity="1" fill-opacity="0" stroke="#000000" stroke-width="1" stroke-opacity="0"></use></g></g><g><use xlink:href="#b149JAtc6E" opacity="1" fill="url(#gradienti8kT4uA2lP)"></use><g><use xlink:href="#b149JAtc6E" opacity="1" fill-opacity="0" stroke="#000000" stroke-width="1" stroke-opacity="0"></use></g></g><g><use xlink:href="#d69Tb8Wre" opacity="1" fill="#ffffff" fill-opacity="1"></use><g><use xlink:href="#d69Tb8Wre" opacity="1" fill-opacity="0" stroke="#000000" stroke-width="1" stroke-opacity="0"></use></g></g></g></g></svg>